<svg style="display: none">
    <symbol id="down" xmlns="http://www.w3.org/2000/svg" viewBox="0 0 451.846 451.847">
        <path d="M225.923,354.706c-8.098,0-16.195-3.092-22.369-9.263L9.27,151.157c-12.359-12.359-12.359-32.397,0-44.751 c12.354-12.354,32.388-12.354,44.748,0l171.905,171.915l171.906-171.909c12.359-12.354,32.391-12.354,44.744,0 c12.365,12.354,12.365,32.392,0,44.751L248.292,345.449C242.115,351.621,234.018,354.706,225.923,354.706z"/>
    </symbol>
    <symbol id="up" xmlns="http://www.w3.org/2000/svg" viewBox="0 0 512 512">
        <path d="M281.3,120.6l220.1,220.2c14,14,14,36.7,0,50.7c-14,14-36.7,14-50.7,0L256,196.6L61.2,391.4 c-14,14-36.7,14-50.7,0c-14-14-14-36.7,0-50.7l220.1-220.2c7-7,16.2-10.5,25.3-10.5C265.2,110.1,274.3,113.6,281.3,120.6z"/>
    </symbol>
    <symbol id="dots" xmlns="http://www.w3.org/2000/svg" viewBox="0 0 16 108">
        <circle class="cls-1" cx="8" cy="8" r="8"/><circle class="cls-1" cx="8" cy="100" r="8"/><circle class="cls-1" cx="8" cy="53.94" r="8"/>
    </symbol>
    <symbol id="arrow-left" xmlns="http://www.w3.org/2000/svg" viewBox="0 0 477.175 477.175">
        <path d="M145.188,238.575l215.5-215.5c5.3-5.3,5.3-13.8,0-19.1s-13.8-5.3-19.1,0l-225.1,225.1c-5.3,5.3-5.3,13.8,0,19.1l225.1,225c2.6,2.6,6.1,4,9.5,4s6.9-1.3,9.5-4c5.3-5.3,5.3-13.8,0-19.1L145.188,238.575z"/>
    </symbol>
    <symbol id="arrow-right" xmlns="http://www.w3.org/2000/svg" viewBox="0 0 129 129">
        <path d="m40.4,121.3c-0.8,0.8-1.8,1.2-2.9,1.2s-2.1-0.4-2.9-1.2c-1.6-1.6-1.6-4.2 0-5.8l51-51-51-51c-1.6-1.6-1.6-4.2 0-5.8 1.6-1.6 4.2-1.6 5.8,0l53.9,53.9c1.6,1.6 1.6,4.2 0,5.8l-53.9,53.9z"/>
    </symbol>
    <symbol id="calendar" xmlns="http://www.w3.org/2000/svg" viewBox="0 0 32 32">
        <path d="M29.334,3H25V1c0-0.553-0.447-1-1-1s-1,0.447-1,1v2h-6V1c0-0.553-0.448-1-1-1s-1,0.447-1,1v2H9V1
		c0-0.553-0.448-1-1-1S7,0.447,7,1v2H2.667C1.194,3,0,4.193,0,5.666v23.667C0,30.806,1.194,32,2.667,32h26.667
		C30.807,32,32,30.806,32,29.333V5.666C32,4.193,30.807,3,29.334,3z M30,29.333C30,29.701,29.701,30,29.334,30H2.667
		C2.299,30,2,29.701,2,29.333V5.666C2,5.299,2.299,5,2.667,5H7v2c0,0.553,0.448,1,1,1s1-0.447,1-1V5h6v2c0,0.553,0.448,1,1,1
		s1-0.447,1-1V5h6v2c0,0.553,0.447,1,1,1s1-0.447,1-1V5h4.334C29.701,5,30,5.299,30,5.666V29.333z"/>
        <rect x="5" y="14" width="5" height="2"/>
        <rect x="13.5" y="14" width="5" height="2"/>
        <rect x="22" y="14" width="5" height="2"/>
        <rect x="5" y="22" width="5" height="2"/>
        <rect x="13.5" y="22" width="5" height="2"/>
        <rect x="22" y="22" width="5" height="2"/>
    </symbol>
    <symbol id="arrow-drop-down" xmlns="http://www.w3.org/2000/svg" viewBox="0 0 24 24">
        <path d="M7 10l5 5 5-5z"/>
    </symbol>
</svg>
