<svg style="display: none">
	<symbol id="clock" xmlns="http://www.w3.org/2000/svg" viewBox="0 0 97.16 97.16">
		<g>
			<path d="M48.58,0C21.793,0,0,21.793,0,48.58s21.793,48.58,48.58,48.58s48.58-21.793,48.58-48.58S75.367,0,48.58,0z M48.58,86.823
			c-21.087,0-38.244-17.155-38.244-38.243S27.493,10.337,48.58,10.337S86.824,27.492,86.824,48.58S69.667,86.823,48.58,86.823z"/>
			<path d="M73.898,47.08H52.066V20.83c0-2.209-1.791-4-4-4c-2.209,0-4,1.791-4,4v30.25c0,2.209,1.791,4,4,4h25.832
			c2.209,0,4-1.791,4-4S76.107,47.08,73.898,47.08z"/>
		</g>
	</symbol>
	<symbol id="grid-world" xmlns="http://www.w3.org/2000/svg" viewBox="0 0 15 15">
		<g>
			<path style="fill:#030104;" d="M14.982,7C14.736,3.256,11.744,0.263,8,0.017V0H7.5H7v0.017C3.256,0.263,0.263,3.256,0.017,7H0v0.5
		V8h0.017C0.263,11.744,3.256,14.736,7,14.982V15h0.5H8v-0.018c3.744-0.246,6.736-3.238,6.982-6.982H15V7.5V7H14.982z M4.695,1.635
		C4.212,2.277,3.811,3.082,3.519,4H2.021C2.673,2.983,3.599,2.16,4.695,1.635z M1.498,5h1.758C3.122,5.632,3.037,6.303,3.01,7H1.019
		C1.072,6.296,1.238,5.623,1.498,5z M1.019,8H3.01c0.027,0.697,0.112,1.368,0.246,2H1.498C1.238,9.377,1.072,8.704,1.019,8z
		 M2.021,11h1.497c0.292,0.918,0.693,1.723,1.177,2.365C3.599,12.84,2.673,12.018,2.021,11z M7,13.936
		C5.972,13.661,5.087,12.557,4.55,11H7V13.936z M7,10H4.269C4.128,9.377,4.039,8.704,4.01,8H7V10z M7,7H4.01
		c0.029-0.704,0.118-1.377,0.259-2H7V7z M7,4H4.55C5.087,2.443,5.972,1.339,7,1.065V4z M12.979,4h-1.496
		c-0.293-0.918-0.693-1.723-1.178-2.365C11.4,2.16,12.327,2.983,12.979,4z M8,1.065C9.027,1.339,9.913,2.443,10.45,4H8V1.065z M8,5
		h2.73c0.142,0.623,0.229,1.296,0.26,2H8V5z M8,8h2.99c-0.029,0.704-0.118,1.377-0.26,2H8V8z M8,13.936V11h2.45
		C9.913,12.557,9.027,13.661,8,13.936z M10.305,13.365c0.483-0.643,0.885-1.447,1.178-2.365h1.496
		C12.327,12.018,11.4,12.84,10.305,13.365z M13.502,10h-1.758c0.134-0.632,0.219-1.303,0.246-2h1.99
		C13.928,8.704,13.762,9.377,13.502,10z M11.99,7c-0.027-0.697-0.112-1.368-0.246-2h1.758c0.26,0.623,0.426,1.296,0.479,2H11.99z"/>
		</g>
	</symbol>
	<symbol id="settings" xmlns="http://www.w3.org/2000/svg" viewBox="0 0 512 512">
		<path d="m474.835938 190.613281-24.96875-4.234375c-2.222657-6.1875-4.734376-12.257812-7.511719-18.160156l14.703125-20.570312c12.792968-17.972657 10.738281-42.246094-4.835938-57.667969l-30.003906-30.007813c-8.480469-8.480468-19.722656-13.152344-31.652344-13.152344-9.394531 0-18.378906 2.894532-25.917968 8.320313l-20.648438 14.707031c-6.386719-3.019531-12.867188-5.6875-19.390625-7.992187l-4.128906-24.464844c-3.632813-21.667969-22.21875-37.390625-44.195313-37.390625h-42.390625c-21.972656 0-40.558593 15.722656-44.183593 37.347656l-4.339844 25.421875c-6.128906 2.238281-12.171875 4.78125-18.089844 7.621094l-20.273438-14.601563c-7.601562-5.472656-16.621093-8.363281-26.085937-8.363281-12.046875 0-23.292969 4.679688-31.679687 13.179688l-30.074219 29.976562c-15.53125 15.53125-17.566407 39.785157-4.835938 57.667969l14.941407 20.992188c-2.753907 5.925781-5.230469 12.023437-7.417969 18.246093l-24.46875 4.128907c-21.664063 3.636718-37.386719 22.222656-37.386719 44.195312v42.390625c0 21.972656 15.722656 40.558594 37.347656 44.1875l25.421875 4.335937c2.238281 6.132813 4.785157 12.179688 7.621094 18.09375l-14.546875 20.234376c-12.792969 17.972656-10.738281 42.25 4.835938 57.667968l30.003906 30.007813c8.480468 8.480469 19.722656 13.152343 31.652344 13.152343 9.394531 0 18.378906-2.894531 25.914062-8.316406l20.992188-14.941406c5.515624 2.5625 11.234374 4.910156 17.105468 7.023438l4.160156 24.964843c3.636719 21.664063 22.222657 37.386719 44.195313 37.386719h42.488281c21.972656 0 40.5625-15.722656 44.191406-37.359375l4.234376-24.972656c6.1875-2.222657 12.257812-4.734375 18.160156-7.511719l20.503906 14.65625c7.601562 5.472656 16.621094 8.367188 26.085938 8.367188 11.925781 0 23.167968-4.671876 31.648437-13.152344l30.003906-30.007813c15.535157-15.53125 17.566407-39.785156 4.835938-57.667969l-14.71875-20.667968c2.851562-6.039063 5.371093-12.105469 7.539062-18.136719l24.933594-4.15625c21.664063-3.636719 37.386719-22.222656 37.386719-44.195313v-42.304687c.246094-21.996094-15.363282-40.605469-37.160156-44.277344zm7.160156 86.582031c0 7.261719-5.195313 13.40625-12.335938 14.605469l-33.070312 5.511719c-6.101563 1.015625-11.023438 5.320312-12.855469 11.238281-2.9375 9.519531-6.972656 19.25-11.984375 28.90625-2.835938 5.445313-2.382812 11.933594 1.179688 16.925781l19.488281 27.367188c4.203125 5.90625 3.527343 13.921875-1.609375 19.058594l-30.003906 30.003906c-2.855469 2.855469-6.464844 4.367188-10.4375 4.367188-3.132813 0-6.089844-.9375-8.597657-2.742188l-27.25-19.476562c-5.011719-3.597657-11.527343-4.050782-17-1.1875-9.164062 4.796874-18.902343 8.832031-28.945312 11.984374-5.859375 1.835938-10.136719 6.742188-11.15625 12.78125l-5.617188 33.105469c-1.199219 7.160157-7.34375 12.355469-14.609375 12.355469h-42.488281c-7.265625 0-13.40625-5.195312-14.605469-12.335938l-5.511718-33.070312c-1.007813-6.0625-5.273438-10.976562-11.132813-12.828125-9.898437-3.125-19.324219-7-28.023437-11.519531-2.371094-1.230469-4.9375-1.835938-7.492188-1.835938-3.304688 0-6.59375 1.015625-9.410156 3.019532l-27.738282 19.742187c-2.5 1.800781-5.34375 2.710937-8.453124 2.710937-3.972657 0-7.582032-1.507812-10.4375-4.367187l-30.058594-30.054687c-5.128906-5.078126-5.78125-13.070313-1.597656-18.949219l19.371093-26.945313c3.644531-5.058594 4.089844-11.621094 1.152344-17.140625-4.925781-9.238281-9.007813-18.925781-12.136719-28.796875-1.851562-5.820312-6.738281-10.074218-12.753906-11.101562l-33.523438-5.714844c-7.15625-1.203125-12.351562-7.347656-12.351562-14.609375v-42.390625c0-7.261719 5.195312-13.40625 12.363281-14.609375l32.664063-5.511719c6.105468-1.027344 11.023437-5.34375 12.839844-11.28125 3.082031-10.085937 7.046874-19.839844 11.785156-28.980468 2.820312-5.433594 2.367187-11.90625-1.183594-16.902344l-19.695312-27.671875c-4.207032-5.90625-3.53125-13.921875 1.589843-19.042969l30.105469-30.003906.109375-.113282c2.707031-2.753906 6.378906-4.269531 10.34375-4.269531 3.132813 0 6.09375.9375 8.554687 2.710938l27.0625 19.480469c5.066407 3.648437 11.636719 4.085937 17.136719 1.148437 9.238281-4.925781 18.925781-9.007813 28.785157-12.132813 5.820312-1.847656 10.074218-6.726562 11.109374-12.757812l5.71875-33.523438c1.199219-7.15625 7.34375-12.351562 14.609376-12.351562h42.390624c7.261719 0 13.40625 5.195312 14.609376 12.363281l5.511718 32.675781c1.03125 6.109376 5.355469 11.023438 11.296875 12.835938 10.128907 3.078125 20.230469 7.234375 30.03125 12.359375 5.445313 2.84375 11.933594 2.398437 16.949219-1.167969l27.429688-19.535156c2.496093-1.800781 5.339843-2.710938 8.453124-2.710938 3.96875 0 7.578126 1.507813 10.4375 4.367188l30.054688 30.054688c5.128906 5.078124 5.785156 13.070312 1.574219 18.980468l-19.496094 27.277344c-3.578125 5.015625-4.023437 11.523438-1.167969 16.976562 4.800782 9.164063 8.832032 18.902344 11.988282 28.949219 1.839843 5.859375 6.742187 10.132813 12.78125 11.152344l33.078124 5.613281.027344.003906c7.136719 1.199219 12.25 7.253907 12.148438 14.398438zm0 0"/><path d="m256 156.453125c-54.890625 0-99.546875 44.65625-99.546875 99.546875s44.65625 99.546875 99.546875 99.546875 99.546875-44.65625 99.546875-99.546875-44.65625-99.546875-99.546875-99.546875zm0 169.09375c-38.347656 0-69.546875-31.199219-69.546875-69.546875s31.199219-69.546875 69.546875-69.546875 69.546875 31.199219 69.546875 69.546875-31.199219 69.546875-69.546875 69.546875zm0 0"/>
	</symbol>
	<symbol id="promo" xmlns="http://www.w3.org/2000/svg" viewBox="0 0 512.001 512.001">
		<g>
			<g>
				<path d="M446.977,201.914L277.316,32.253c-17.539-17.54-46.081-17.541-63.622,0c-15.768,15.767-17.126,39.814-5.482,56.985
			l-0.236,1.181c-12.232,61.165-42.011,116.809-86.12,160.917l-77.819,77.819c-17.582,17.583-17.585,46.039,0,63.622l42.414,42.414
			c17.581,17.582,46.039,17.583,63.622,0l10.604-10.604l74.226,74.226c17.582,17.583,46.038,17.584,63.621,0
			c17.541-17.54,17.541-46.081,0-63.621l-31.811-31.811l10.604-10.604c17.582-17.581,17.584-46.037,0-63.621l-7.206-7.207
			c35.449-24.819,75.708-42.098,118.701-50.697l1.196-0.239c17.553,11.851,41.544,9.946,56.969-5.479h0.001
			C464.516,247.995,464.516,219.455,446.977,201.914z M128.866,413.984c-5.86,5.859-15.348,5.86-21.208-0.001l-42.414-42.414
			c-5.861-5.862-5.861-15.346,0-21.207l74.225-74.226l63.622,63.622C195.829,347.02,136.307,406.542,128.866,413.984z
			 M277.316,456.398c5.846,5.846,5.846,15.36,0,21.207c-5.846,5.846-15.361,5.846-21.207,0l-74.226-74.226l21.208-21.207
			L277.316,456.398z M224.298,360.965c4.508-4.508,11.256-11.413,21.906-20.509l9.905,9.906c5.861,5.861,5.861,15.345,0,21.207
			l-10.604,10.604L224.298,360.965z M224.935,319.189l-64.898-64.898c34.779-40.159,59.685-87.564,73.01-139.064l130.952,130.952
			C312.499,259.503,265.095,284.409,224.935,319.189z M425.767,244.326c-5.861,5.86-15.346,5.86-21.207,0L234.901,74.667
			c-5.861-5.862-5.861-15.346,0-21.207c5.861-5.861,15.347-5.861,21.208,0l169.658,169.658
			C431.613,228.965,431.613,238.478,425.767,244.326z"/>
			</g>
		</g>
		<g>
			<g>
				<path d="M150.072,329.154c-5.855-5.856-15.351-5.856-21.207,0l-21.207,21.207c-5.856,5.856-5.856,15.351,0,21.207
			c5.855,5.856,15.352,5.856,21.207,0l21.207-21.207C155.928,344.505,155.928,335.01,150.072,329.154z"/>
			</g>
		</g>
		<g>
			<g>
				<path d="M346.19,0c-8.282,0-14.996,6.714-14.996,14.996v29.992c0,8.282,6.714,14.996,14.996,14.996s14.996-6.714,14.996-14.996
			V14.996C361.186,6.714,354.472,0,346.19,0z"/>
			</g>
		</g>
		<g>
			<g>
				<path d="M466.157,119.966h-29.992c-8.282,0-14.996,6.714-14.996,14.996s6.714,14.996,14.996,14.996h29.992
			c8.282,0,14.996-6.714,14.996-14.996S474.438,119.966,466.157,119.966z"/>
			</g>
		</g>
		<g>
			<g>
				<path d="M446.769,34.383c-5.855-5.856-15.351-5.856-21.207,0L395.57,64.375c-5.856,5.856-5.856,15.351,0,21.207
			c5.855,5.856,15.351,5.857,21.207,0l29.992-29.992C452.625,49.734,452.625,40.24,446.769,34.383z"/>
			</g>
		</g>
	</symbol>
	<symbol id="link" xmlns="http://www.w3.org/2000/svg" viewBox="0 0 465.951 465.951">
		<g>
			<path d="M441.962,284.364l-59.389-59.383c-15.984-15.985-35.396-23.982-58.238-23.982c-23.223,0-43.013,8.375-59.385,25.125
		l-25.125-25.125c16.751-16.368,25.125-36.256,25.125-59.671c0-22.841-7.898-42.157-23.698-57.958l-58.815-59.097
		c-15.798-16.178-35.212-24.27-58.242-24.27c-22.841,0-42.16,7.902-57.958,23.7L24.267,65.386C8.088,81.188,0,100.504,0,123.343
		c0,22.841,7.996,42.258,23.982,58.245l59.385,59.383c15.99,15.988,35.404,23.982,58.245,23.982
		c23.219,0,43.015-8.374,59.383-25.126l25.125,25.126c-16.75,16.371-25.125,36.258-25.125,59.672
		c0,22.843,7.898,42.154,23.697,57.958l58.82,59.094c15.801,16.177,35.208,24.27,58.238,24.27c22.844,0,42.154-7.897,57.958-23.698
		l41.973-41.682c16.177-15.804,24.271-35.118,24.271-57.958C465.947,319.771,457.953,300.359,441.962,284.364z M200.999,162.178
		c-0.571-0.571-2.334-2.378-5.28-5.424c-2.948-3.046-4.995-5.092-6.136-6.14c-1.143-1.047-2.952-2.474-5.426-4.286
		c-2.478-1.809-4.902-3.044-7.28-3.711c-2.38-0.666-4.998-0.998-7.854-0.998c-7.611,0-14.084,2.666-19.414,7.993
		c-5.33,5.327-7.992,11.799-7.992,19.414c0,2.853,0.332,5.471,0.998,7.851c0.666,2.382,1.903,4.808,3.711,7.281
		c1.809,2.474,3.237,4.283,4.283,5.426c1.044,1.141,3.09,3.188,6.136,6.139c3.046,2.95,4.853,4.709,5.424,5.281
		c-5.711,5.898-12.563,8.848-20.555,8.848c-7.804,0-14.277-2.568-19.414-7.705L62.81,142.761c-5.327-5.33-7.992-11.802-7.992-19.417
		c0-7.421,2.662-13.796,7.992-19.126l41.971-41.687c5.523-5.14,11.991-7.705,19.417-7.705c7.611,0,14.083,2.663,19.414,7.993
		l58.813,59.097c5.33,5.33,7.992,11.801,7.992,19.414C210.418,149.321,207.278,156.27,200.999,162.178z M403.147,361.732
		l-41.973,41.686c-5.332,4.945-11.8,7.423-19.418,7.423c-7.809,0-14.27-2.566-19.41-7.707l-58.813-59.101
		c-5.331-5.332-7.99-11.8-7.99-19.41c0-7.994,3.138-14.941,9.421-20.841c0.575,0.567,2.334,2.381,5.284,5.42
		c2.95,3.046,4.996,5.093,6.14,6.14c1.143,1.051,2.949,2.478,5.42,4.288c2.478,1.811,4.9,3.049,7.282,3.713
		c2.382,0.667,4.997,0.999,7.851,0.999c7.618,0,14.086-2.665,19.418-7.994c5.324-5.328,7.994-11.8,7.994-19.41
		c0-2.854-0.339-5.472-1-7.851c-0.67-2.382-1.902-4.809-3.72-7.282c-1.811-2.471-3.23-4.284-4.281-5.428
		c-1.047-1.136-3.094-3.183-6.139-6.14c-3.046-2.949-4.853-4.709-5.428-5.276c5.715-6.092,12.566-9.138,20.554-9.138
		c7.617,0,14.085,2.663,19.41,7.994l59.388,59.382c5.332,5.332,7.995,11.807,7.995,19.417
		C411.132,350.032,408.469,356.415,403.147,361.732z"/>
		</g>
	</symbol>
	<symbol id="dashboard" xmlns="http://www.w3.org/2000/svg" viewBox="0 0 200 200">
		<path d="M63.85,92H31.18A29.29,29.29,0,0,1,2,62.66V30.33A29.29,29.29,0,0,1,31.18,1H63.85A29.3,29.3,0,0,1,93,30.33V62.66A29.3,29.3,0,0,1,63.85,92ZM31.18,19A11.31,11.31,0,0,0,19.91,30.33V62.66A11.31,11.31,0,0,0,31.18,74H63.85A11.32,11.32,0,0,0,75.13,62.66V30.33A11.32,11.32,0,0,0,63.85,19Z"/><path d="M169.32,92H136.65a29.3,29.3,0,0,1-29.19-29.33V30.33A29.3,29.3,0,0,1,136.65,1h32.67A29.29,29.29,0,0,1,198.5,30.33V62.66A29.29,29.29,0,0,1,169.32,92ZM136.65,19a11.32,11.32,0,0,0-11.28,11.33V62.66A11.32,11.32,0,0,0,136.65,74h32.67a11.31,11.31,0,0,0,11.27-11.33V30.33A11.31,11.31,0,0,0,169.32,19Z"/><path d="M169.32,199H136.65a29.3,29.3,0,0,1-29.19-29.33V137.33A29.3,29.3,0,0,1,136.65,108h32.67a29.29,29.29,0,0,1,29.18,29.33v32.33A29.29,29.29,0,0,1,169.32,199Zm-32.67-73a11.32,11.32,0,0,0-11.28,11.33v32.33A11.32,11.32,0,0,0,136.65,181h32.67a11.31,11.31,0,0,0,11.27-11.33V137.33A11.31,11.31,0,0,0,169.32,126Z"/><path d="M63.85,199H31.18A29.29,29.29,0,0,1,2,169.66V137.33A29.29,29.29,0,0,1,31.18,108H63.85A29.3,29.3,0,0,1,93,137.33v32.33A29.3,29.3,0,0,1,63.85,199ZM31.18,126a11.31,11.31,0,0,0-11.27,11.33v32.33A11.31,11.31,0,0,0,31.18,181H63.85a11.32,11.32,0,0,0,11.28-11.33V137.33A11.32,11.32,0,0,0,63.85,126Z"/>
	</symbol>
	<symbol id="email" xmlns="http://www.w3.org/2000/svg" viewBox="0 0 511.999 511.999">
		<path d="M444.253,47.065H67.747c-37.355,0-67.745,30.391-67.745,67.745v282.379c0,37.355,30.39,67.745,67.745,67.745h376.506    c37.355,0,67.745-30.391,67.745-67.745V114.81C511.998,77.455,481.608,47.065,444.253,47.065z M470.634,397.189    c0,14.546-11.835,26.381-26.381,26.381H67.747c-14.546,0-26.381-11.835-26.381-26.381V114.81    c0-14.546,11.835-26.381,26.381-26.381h376.506c14.546,0,26.381,11.835,26.381,26.381V397.189z"/>
		<path d="M508.259,102.95c-6.549-9.357-19.443-11.633-28.804-5.083L255.999,254.284L32.544,97.866    c-9.357-6.551-22.253-4.274-28.803,5.083s-4.274,22.253,5.083,28.803L244.14,296.474c3.561,2.493,7.71,3.738,11.86,3.738    c4.149,0,8.299-1.246,11.86-3.738l235.316-164.721C512.533,125.203,514.809,112.307,508.259,102.95z"/>
	</symbol>
	<symbol id="menu" xmlns="http://www.w3.org/2000/svg" viewBox="0 0 191 166">
		<rect width="191" height="19" rx="9.5" ry="9.5"/><rect y="75" width="191" height="19" rx="9.5" ry="9.5"/><rect y="147" width="191" height="19" rx="9.5" ry="9.5"/>
	</symbol>
	<symbol id="cross" xmlns="http://www.w3.org/2000/svg" viewBox="0 0 166.59 166.59">
		<rect x="-15.88" y="91.01" width="227.73" height="19" rx="9.5" ry="9.5" transform="translate(-57.06 81.51) rotate(-45)"/><rect x="-15.88" y="91.01" width="227.73" height="19" rx="9.5" ry="9.5" transform="translate(81.51 223.66) rotate(-135)"/>
	</symbol>
	<symbol id="wallet" xmlns="http://www.w3.org/2000/svg" viewBox="0 0 512 512">
		<path d="M482,241v-90h-30V91h-30V31H75C33.645,31,0,64.645,0,106v300c0,41.355,33.645,75,75,75h407v-90h30V241H482z M75,61h317v30    H60v57.42c-17.459-6.192-30-22.865-30-42.42C30,81.187,50.187,61,75,61z M422,121v30H90v-30H422z M452,451H75    c-24.813,0-45-20.187-45-45V165.959C42.544,175.397,58.129,181,75,181h377v60h-45c-41.355,0-75,33.645-75,75    c0,41.355,33.645,75,75,75h45V451z M482,361h-75c-24.813,0-45-20.187-45-45s20.187-45,45-45h75V361z"/>
		<rect x="392" y="301" width="30" height="30"/>
	</symbol>
	<symbol id="faq" xmlns="http://www.w3.org/2000/svg" viewBox="0 0 198 198">
		<path d="M167.4,1H32.6A31.64,31.64,0,0,0,1,32.6V167.4A31.64,31.64,0,0,0,32.6,199H167.4A31.64,31.64,0,0,0,199,167.4V32.6A31.64,31.64,0,0,0,167.4,1ZM181,167.4A13.61,13.61,0,0,1,167.4,181H32.6A13.61,13.61,0,0,1,19,167.4V32.6A13.61,13.61,0,0,1,32.6,19H167.4A13.61,13.61,0,0,1,181,32.6Z" transform="translate(-1 -1)"/><circle cx="57" cy="133" r="11.5"/><circle cx="99" cy="133" r="11.5"/><circle cx="142" cy="133" r="11.5"/>
	</symbol>
	<symbol id="statistics" xmlns="http://www.w3.org/2000/svg" viewBox="0 0 196.09 186.36">
		<path d="M25.49,161.63H40.27a18.58,18.58,0,0,0,18.56-18.56V112.62A18.58,18.58,0,0,0,40.27,94.05H25.49A18.59,18.59,0,0,0,6.93,112.62v30.45A18.59,18.59,0,0,0,25.49,161.63Zm-.56-49a.57.57,0,0,1,.56-.57H40.27a.57.57,0,0,1,.56.57v30.45a.56.56,0,0,1-.56.56H25.49a.57.57,0,0,1-.56-.56Z" transform="translate(-1.91 -6.14)"/><path d="M92.56,161.63h14.78a18.58,18.58,0,0,0,18.56-18.56V74.27a18.57,18.57,0,0,0-18.56-18.56H92.56A18.58,18.58,0,0,0,74,74.27v68.8A18.59,18.59,0,0,0,92.56,161.63ZM92,74.27a.56.56,0,0,1,.56-.56h14.78a.56.56,0,0,1,.56.56v68.8a.56.56,0,0,1-.56.56H92.56a.56.56,0,0,1-.56-.56Z" transform="translate(-1.91 -6.14)"/><path d="M159.47,161.63h14.78a18.58,18.58,0,0,0,18.56-18.56V24.7A18.57,18.57,0,0,0,174.25,6.14H159.47A18.58,18.58,0,0,0,140.91,24.7V143.07A18.59,18.59,0,0,0,159.47,161.63ZM158.91,24.7a.56.56,0,0,1,.56-.56h14.78a.56.56,0,0,1,.56.56V143.07a.56.56,0,0,1-.56.56H159.47a.56.56,0,0,1-.56-.56Z" transform="translate(-1.91 -6.14)"/><path d="M189,174.49H10.91a9,9,0,1,0,0,18H189a9,9,0,0,0,0-18Z" transform="translate(-1.91 -6.14)"/>
	</symbol>
	<symbol id="pr-tools" xmlns="http://www.w3.org/2000/svg" viewBox="0 0 168.81 197.02">
		<path d="M178.47,74.91,111.25,7.23A19.4,19.4,0,0,0,97.48,1.48h-.07A19.53,19.53,0,0,0,81.83,32.79c.74,6.13-1.62,15.46-6.5,25.46-6.75,13.84-18,28.76-32.45,43.13l-22,21.88a18.83,18.83,0,0,0-.09,26.57l15.91,16a18.81,18.81,0,0,0,26.57.09l1.4-1.38L92.94,193A18.44,18.44,0,0,0,106,198.5h.06a18.52,18.52,0,0,0,13.15-31.59l-11.68-11.76,5-5a17,17,0,0,0,.1-24l-3-3c21.58-15.54,36.74-18.24,43.65-18.48a19.4,19.4,0,0,0,11.18,3.58h.07a19.35,19.35,0,0,0,13.69-5.6l.11-.11A19.53,19.53,0,0,0,178.47,74.91Zm-83-28.07,44.33,44.64c-18.17,4.55-36,16.63-49.26,27.56L67.47,96.78C82.17,79.24,92,61.69,95.51,46.84ZM47.32,155.27l-15.91-16a3.83,3.83,0,0,1,0-5.36l22-21.87q2-2,4-4.08l21.85,21c-1.72,1.61-3.26,3.1-4.59,4.43l-22,21.87A3.82,3.82,0,0,1,47.32,155.27Zm61.26,27.22a3.5,3.5,0,0,1-2.5,1,3.54,3.54,0,0,1-2.5-1L75.28,154l5-5,28.3,28.49A3.6,3.6,0,0,1,108.58,182.49ZM102,136.68a2,2,0,0,1,0,2.84l-5,5-5.95-6q3.48-3.24,6.8-6.07Zm65.81-44.85-.08.07a4.38,4.38,0,0,1-3.19,1.3,4.44,4.44,0,0,1-3.17-1.32L94.16,24.2a4.57,4.57,0,0,1,.08-6.42,4.44,4.44,0,0,1,3.17-1.3h0a4.46,4.46,0,0,1,3.18,1.32l67.23,67.68A4.57,4.57,0,0,1,167.83,91.83Z" transform="translate(-15.32 -1.48)"/><path d="M49.89,125.53l-5,4.95a7.5,7.5,0,1,0,10.57,10.64l5-5a7.5,7.5,0,1,0-10.57-10.64Z" transform="translate(-15.32 -1.48)"/>
	</symbol>
	<symbol id="sources" xmlns="http://www.w3.org/2000/svg" viewBox="0 0 198.03 199">
		<path d="M165.7,83.82a9,9,0,0,0-9,9V169a13,13,0,0,1-13,13H32a13,13,0,0,1-13-13V57.29a13,13,0,0,1,13-13h75.27a9,9,0,1,0,0-18H32a31,31,0,0,0-31,31V169a31,31,0,0,0,31,31H143.71a31,31,0,0,0,31-31V92.82A9,9,0,0,0,165.7,83.82Z" transform="translate(-1 -1)"/><path d="M199,9.9a6.79,6.79,0,0,0,0-.78c0-.15,0-.29-.06-.43s0-.3-.07-.45-.07-.31-.11-.46-.06-.26-.1-.39-.1-.3-.16-.45a2.92,2.92,0,0,0-.14-.38,3.75,3.75,0,0,0-.19-.41L198,5.76c-.07-.13-.16-.26-.23-.38L197.51,5a3.25,3.25,0,0,0-.31-.42A3.06,3.06,0,0,0,197,4.3,9.38,9.38,0,0,0,195.73,3l-.31-.23L195,2.52a4.23,4.23,0,0,0-.4-.24l-.36-.22-.41-.2-.39-.17c-.13-.06-.27-.1-.41-.15s-.27-.11-.42-.15l-.41-.11-.44-.11-.49-.07L190.92,1c-.3,0-.6,0-.89,0H136.51a9,9,0,1,0,0,18H168.3L49.64,137.64a9,9,0,1,0,12.72,12.72L181,31.72V62.39a9,9,0,1,0,18,0V10S199,9.93,199,9.9Z" transform="translate(-1 -1)"/>
	</symbol>
	<symbol id="subpartnership" xmlns="http://www.w3.org/2000/svg" viewBox="0 0 198.52 193.39">
		<path d="M192.61,88.24A24.34,24.34,0,0,0,185,83.07c3-8.09.9-17.95-6-24.89a21.92,21.92,0,0,0-13.78-6.41A22.43,22.43,0,0,0,158.88,35a21,21,0,0,0-15.13-6,24.24,24.24,0,0,0-40.7-16.85,7.35,7.35,0,0,0-2.39,1.37L96.84,9.7A23.28,23.28,0,0,0,57.13,24.57,23.25,23.25,0,0,0,34,48,23.26,23.26,0,0,0,14.5,82.39a23.28,23.28,0,0,0-7.22,37.86l12.58,12.58h0a22.22,22.22,0,0,0,1.77,1.6L20,136.09a22.4,22.4,0,0,0-6.59,15.84,22.16,22.16,0,0,0,6.51,15.88l22,21.95a22.26,22.26,0,0,0,15.78,6.51,22.49,22.49,0,0,0,15.94-6.6L83,180.23a60.71,60.71,0,0,0,19.57,3.24,61.69,61.69,0,0,0,17.2-2.45l8.47,8.47A22.14,22.14,0,0,0,144.06,196h.23a22.81,22.81,0,0,0,16-6.72l22.58-22.58a22.67,22.67,0,0,0,.21-32l-3.15-3.14L190.5,121a8.31,8.31,0,0,0,.9-1.08,8.23,8.23,0,0,0,1.08-.89,21.85,21.85,0,0,0,6.5-15.23A21.35,21.35,0,0,0,192.61,88.24ZM112.93,23.4a9.3,9.3,0,0,1,13.36,12.93c-.19.15-.37.32-.55.49l-.88.89L111.6,24.45A7.31,7.31,0,0,0,112.93,23.4ZM74.48,20.31a8.33,8.33,0,0,1,11.76,0l29.15,29.15a8.31,8.31,0,0,1-11.75,11.76L74.48,32.06A8.32,8.32,0,0,1,74.48,20.31ZM51.43,42a8.33,8.33,0,0,1,11.76,0L103.3,82.1A8.31,8.31,0,0,1,91.55,93.85L51.43,53.74A8.33,8.33,0,0,1,51.43,42ZM29.07,65.33a8.32,8.32,0,0,1,11.75,0L72,96.55a8.31,8.31,0,0,1-11.75,11.76L29.07,77.09A8.31,8.31,0,0,1,29.07,65.33ZM17.88,109.65A8.32,8.32,0,0,1,29.64,97.89l12.58,12.58a8.32,8.32,0,0,1-11.76,11.76Zm154.36,46.44-22.58,22.58a7.88,7.88,0,0,1-5.52,2.33h-.08a7.29,7.29,0,0,1-5.2-2.11l-4.35-4.35a59.73,59.73,0,0,0,11.15-8.74l23.65-23.65,3.14,3.14a7.27,7.27,0,0,1,2.12,5.28A7.9,7.9,0,0,1,172.24,156.09Zm9.63-47.72a7.5,7.5,0,0,0-.89,1.08,8.32,8.32,0,0,0-1.09.89l-44.84,44.85a46.09,46.09,0,0,1-50.88,9.43A7.49,7.49,0,0,0,75,167.19a7.44,7.44,0,0,0-1,.81L63,179.07a7.43,7.43,0,0,1-10.5.08l-22-22A7.25,7.25,0,0,1,28.38,152a7.49,7.49,0,0,1,2.2-5.29l7.12-7.12a23.1,23.1,0,0,0,20.52-15.26,23.28,23.28,0,0,0,24.43-5.4,23.09,23.09,0,0,0,5.73-9.46,23.41,23.41,0,0,0,25.53-5A23.39,23.39,0,0,0,118,77a23.21,23.21,0,0,0,14.8-21.69,24.21,24.21,0,0,0-.36-4l3.6-3.6.07,0a5.57,5.57,0,0,0,.57-.52c3.56-3.56,8.87-4.28,11.58-1.57s3,8.22-.78,12a4.41,4.41,0,0,0-.46.51l-.2.17-.17.15-10.41,9.81a7.5,7.5,0,0,0,10.29,10.92L157,69.33a.27.27,0,0,1,.07-.08l.09-.08a8.86,8.86,0,0,1,5.71-2.48,7.19,7.19,0,0,1,5.56,2.1c3.35,3.35,4,8.39,1.36,11a7.42,7.42,0,0,0-.85,1l-.06.05L164,85.72c-.57.47-1.13,1-1.67,1.51a8.54,8.54,0,0,0-.83,1l-3.83,3.84a7.5,7.5,0,1,0,10.61,10.6l5.59-5.59a4.89,4.89,0,0,1,3.06-.8A8.16,8.16,0,0,1,182,98.84,6.6,6.6,0,0,1,181.87,108.37Z" transform="translate(-0.46 -2.88)"/>
	</symbol>
	<symbol id="withdrawal" xmlns="http://www.w3.org/2000/svg" viewBox="0 0 194.39 195">
		<path d="M195.93,110V89.06a9.08,9.08,0,0,0,.39-2.62V33.19C196.32,16.54,181.1,3,162.4,3H35.84C17.14,3,1.93,16.54,1.93,33.19V140.83C1.93,157.48,17.14,171,35.84,171H160.15L145.9,181.83a9,9,0,0,0,10.89,14.34l35.69-27.09.1-.09.36-.29.41-.39.27-.28c.16-.17.32-.35.46-.53s.09-.09.13-.15l.06-.08.32-.48.18-.28c.09-.15.17-.3.25-.45s.12-.23.17-.35.12-.26.17-.39.12-.29.17-.44.07-.22.1-.33a4.44,4.44,0,0,0,.15-.52c0-.1,0-.2.06-.3a5.12,5.12,0,0,0,.1-.54c0-.12,0-.23,0-.34a4.38,4.38,0,0,0,0-.51c0-.14,0-.28,0-.43s0-.28,0-.42a4,4,0,0,0,0-.5c0-.12,0-.24,0-.35s-.06-.36-.09-.53,0-.22-.07-.32-.09-.33-.14-.5l-.11-.35c-.05-.14-.11-.27-.16-.41s-.11-.28-.18-.42l-.16-.32c-.09-.16-.17-.33-.27-.48a2.13,2.13,0,0,0-.16-.25c-.11-.18-.22-.35-.34-.51a.35.35,0,0,1,0-.08l-.14-.16-.38-.45-.28-.29c-.11-.11-.22-.22-.34-.32s-.26-.23-.39-.34l-.2-.17L156,127.07a9,9,0,1,0-10.88,14.34L160.44,153H35.84c-8.63,0-15.91-5.58-15.91-12.19V110ZM35.84,21H162.4c8.63,0,15.92,5.58,15.92,12.19v46H19.93v-46C19.93,26.58,27.21,21,35.84,21Z" transform="translate(-1.93 -3)"/>
	</symbol>
	<symbol id="right" xmlns="http://www.w3.org/2000/svg" viewBox="0 0 451.846 451.847">
		<path d="M345.441,248.292L151.154,442.573c-12.359,12.365-32.397,12.365-44.75,0c-12.354-12.354-12.354-32.391,0-44.744
		L278.318,225.92L106.409,54.017c-12.354-12.359-12.354-32.394,0-44.748c12.354-12.359,32.391-12.359,44.75,0l194.287,194.284
		c6.177,6.18,9.262,14.271,9.262,22.366C354.708,234.018,351.617,242.115,345.441,248.292z"/>
	</symbol>
	<symbol id="left" xmlns="http://www.w3.org/2000/svg" viewBox="0 0 451.846 451.847">
		<path d="M97.141,225.92c0-8.095,3.091-16.192,9.259-22.366L300.689,9.27c12.359-12.359,32.397-12.359,44.751,0
		c12.354,12.354,12.354,32.388,0,44.748L173.525,225.92l171.903,171.909c12.354,12.354,12.354,32.391,0,44.744
		c-12.354,12.365-32.386,12.365-44.745,0l-194.29-194.281C100.226,242.115,97.141,234.018,97.141,225.92z"/>
	</symbol>
	<symbol id="down" xmlns="http://www.w3.org/2000/svg" viewBox="0 0 451.846 451.847">
		<path d="M225.923,354.706c-8.098,0-16.195-3.092-22.369-9.263L9.27,151.157c-12.359-12.359-12.359-32.397,0-44.751 c12.354-12.354,32.388-12.354,44.748,0l171.905,171.915l171.906-171.909c12.359-12.354,32.391-12.354,44.744,0 c12.365,12.354,12.365,32.392,0,44.751L248.292,345.449C242.115,351.621,234.018,354.706,225.923,354.706z"/>
	</symbol>
	<symbol id="up" xmlns="http://www.w3.org/2000/svg" viewBox="0 0 512 512">
		<path d="M281.3,120.6l220.1,220.2c14,14,14,36.7,0,50.7c-14,14-36.7,14-50.7,0L256,196.6L61.2,391.4 c-14,14-36.7,14-50.7,0c-14-14-14-36.7,0-50.7l220.1-220.2c7-7,16.2-10.5,25.3-10.5C265.2,110.1,274.3,113.6,281.3,120.6z"/>
	</symbol>
	<symbol id="sad" xmlns="http://www.w3.org/2000/svg" viewBox="0 0 279.58 279.58">
		<path d="M78.24,139.91A19.8,19.8,0,1,1,98,120.11,19.83,19.83,0,0,1,78.24,139.91Zm0-21.85a2,2,0,1,0,2.05,2A2.05,2.05,0,0,0,78.24,118.06Z" transform="translate(-2.42 -2.42)"/><path d="M202.3,139.91a19.8,19.8,0,1,1,19.8-19.8A19.83,19.83,0,0,1,202.3,139.91Zm0-21.85a2,2,0,1,0,2,2A2,2,0,0,0,202.3,118.06Z" transform="translate(-2.42 -2.42)"/><path d="M222.46,194.22H61.54a8.88,8.88,0,1,1,0-17.75H222.46a8.88,8.88,0,1,1,0,17.75Z" transform="translate(-2.42 -2.42)"/><path d="M142.21,282A139.8,139.8,0,0,1,43.36,43.36a139.8,139.8,0,0,1,197.7,197.7A138.9,138.9,0,0,1,142.21,282Zm0-262A122.19,122.19,0,1,0,264.4,142.21,122.34,122.34,0,0,0,142.21,20Z" transform="translate(-2.42 -2.42)"/>
	</symbol>
	<symbol id="play" xmlns="http://www.w3.org/2000/svg" viewBox="0 0 314.068 314.068">
		<path d="M293.002,78.53C249.646,3.435,153.618-22.296,78.529,21.068C3.434,64.418-22.298,160.442,21.066,235.534     c43.35,75.095,139.375,100.83,214.465,57.47C310.627,249.639,336.371,153.62,293.002,78.53z M219.834,265.801     c-60.067,34.692-136.894,14.106-171.576-45.973C13.568,159.761,34.161,82.935,94.23,48.26     c60.071-34.69,136.894-14.106,171.578,45.971C300.493,154.307,279.906,231.117,219.834,265.801z M213.555,150.652l-82.214-47.949     c-7.492-4.374-13.535-0.877-13.493,7.789l0.421,95.174c0.038,8.664,6.155,12.191,13.669,7.851l81.585-47.103     C221.029,162.082,221.045,155.026,213.555,150.652z"/>
	</symbol>
	<symbol id="user-circle" xmlns="http://www.w3.org/2000/svg" viewBox="0 0 427.89 427.89">
		<path d="M4251.78,2620.73c-118.16,0-213.94,95.79-213.94,213.95s95.78,213.94,213.94,213.94,213.95-95.79,213.95-213.94S4369.94,2620.73,4251.78,2620.73Zm-.1,94.53a56.35,56.35,0,1,1-56.35,56.35A56.35,56.35,0,0,1,4251.68,2715.26Zm1,303h0c-88-.45-142-58.79-142-69.83,0-30.73,52-102.78,141-102.78s141.17,74.57,141.17,100.77C4392.85,2962.52,4340.64,3017.87,4252.73,3018.31Z" transform="translate(-4037.84 -2620.73)"/>
	</symbol>
	<symbol id="user" xmlns="http://www.w3.org/2000/svg" viewBox="0 0 16 21">
		<path fill="#FFF" d="M14.266 14.918l-3.323-1.661c-.313-.157-.508-.472-.508-.823v-1.176c.08-.097.163-.208.25-.33.43-.61.776-1.287 1.027-2.018.491-.225.81-.71.81-1.258V6.261c0-.335-.125-.66-.348-.913v-1.85c.02-.192.096-1.33-.728-2.27C10.732.413 9.573 0 8 0 6.427 0 5.268.413 4.554 1.228c-.824.94-.747 2.078-.728 2.27v1.85c-.223.253-.348.578-.348.913v1.391c0 .423.193.818.521 1.082.319 1.261.985 2.212 1.218 2.517v1.15c0 .337-.183.646-.479.808L1.635 14.9C.626 15.451 0 16.507 0 17.656v1.127c0 1.65 5.233 2.087 8 2.087 2.767 0 8-.437 8-2.087v-1.059c0-1.196-.665-2.271-1.734-2.806z"/>
	</symbol>
	<symbol id="logout" xmlns="http://www.w3.org/2000/svg" viewBox="0 0 20 20">
		<path d="m15.555,0c1.224,0 2.271,0.44 3.14,1.32c0.87,0.88 1.305,1.94 1.305,3.18l0,11c0,1.24 -0.435,2.3 -1.304,3.18c-0.87,0.88 -1.917,1.32 -3.141,1.32l-4.94,0c-0.133,0 -0.249,-0.05 -0.347,-0.148c-0.097,-0.1 -0.146,-0.216 -0.146,-0.352c0,-0.042 -0.006,-0.146 -0.016,-0.312c-0.01,-0.167 -0.013,-0.305 -0.008,-0.414c0.006,-0.11 0.021,-0.232 0.047,-0.368c0.026,-0.135 0.077,-0.237 0.154,-0.304c0.078,-0.068 0.183,-0.102 0.317,-0.102l4.939,0c0.679,0 1.26,-0.245 1.744,-0.734c0.484,-0.49 0.725,-1.078 0.725,-1.766l0,-11c0,-0.687 -0.241,-1.276 -0.725,-1.765c-0.484,-0.49 -1.065,-0.735 -1.744,-0.735l-4.816,0l-0.177,-0.016c-0.119,-0.01 -0.178,-0.026 -0.178,-0.046s-0.041,-0.05 -0.124,-0.086c-0.082,-0.036 -0.118,-0.084 -0.108,-0.14c0.011,-0.058 0,-0.129 -0.03,-0.212c0,-0.042 -0.006,-0.146 -0.016,-0.313c-0.01,-0.166 -0.013,-0.304 -0.008,-0.414c0.005,-0.109 0.02,-0.231 0.047,-0.367c0.026,-0.135 0.077,-0.237 0.154,-0.305c0.077,-0.067 0.182,-0.101 0.316,-0.101l4.94,0zm-8.386,4.21c0.216,0 0.403,0.061 0.56,0.181l6.771,5.18c0.158,0.121 0.237,0.264 0.237,0.43c0,0.164 -0.079,0.307 -0.237,0.428l-6.77,5.18c-0.158,0.12 -0.345,0.18 -0.56,0.18c-0.216,0 -0.403,-0.06 -0.56,-0.18c-0.158,-0.121 -0.237,-0.264 -0.237,-0.429l0,-2.742l-5.576,0c-0.216,0 -0.403,-0.06 -0.56,-0.181c-0.158,-0.12 -0.237,-0.264 -0.237,-0.429l0,-3.656c0,-0.165 0.079,-0.308 0.236,-0.429c0.158,-0.12 0.345,-0.18 0.56,-0.18l5.577,0l0,-2.743c0,-0.165 0.078,-0.308 0.236,-0.429c0.158,-0.12 0.345,-0.18 0.56,-0.18l0,-0.001z" fill="#FFF"/>
	</symbol>
	<symbol id="flag-az" xmlns="http://www.w3.org/2000/svg" viewBox="0 0 512 512">
		<path fill="#d80027" d="M0 .006h512v511.989H0z"></path>
		<path fill="#338af3" d="M0 0h512v170.663H0z"></path>
		<path fill="#6da544" d="M0 341.337h512V512H0z"></path>
		<g fill="#f0f0f0">
			<path d="M261.334 325.334C223.042 325.334 192 294.292 192 256s31.042-69.334 69.334-69.334c11.94 0 23.172 3.019 32.982 8.333-15.387-15.046-36.428-24.333-59.648-24.333-47.128 0-85.333 38.205-85.333 85.334s38.205 85.334 85.333 85.334c23.22 0 44.261-9.287 59.648-24.333-9.81 5.313-21.043 8.333-32.982 8.333z"></path>
			<path d="M314.666 208l9.184 25.828 24.759-11.77-11.771 24.757L362.666 256l-25.828 9.185 11.771 24.757-24.759-11.77L314.666 304l-9.182-25.828-24.759 11.77 11.769-24.757L266.666 256l25.828-9.185-11.769-24.757 24.759 11.77z"></path>
		</g>
	</symbol>
	<symbol id="flag-it" xmlns="http://www.w3.org/2000/svg" viewBox="0 0 512 512">
		<path fill="#f0f0f0" d="M 170.666 0 H 341.333 V 512 H 170.666 z"></path>
		<path fill="#009246" d="M 0 0 H 170.666 V 512 H 0 z"></path>
		<path fill="#d80027" d="M 341.333 0 H 512 V 512 H 341.333 z"></path>
	</symbol>
	<symbol id="flag-kz" xmlns="http://www.w3.org/2000/svg" viewBox="0 0 512 512">
		<path fill="#338af3" d="M0 0h512v512H0z"></path>
		<path d="M360.727 266.662H151.273c0 14.461 12.594 26.182 27.054 26.182h-.872c0 14.461 11.721 26.182 26.182 26.182 0 14.461 11.721 26.182 26.182 26.182h52.363c14.461 0 26.182-11.721 26.182-26.182 14.461 0 26.182-11.721 26.182-26.182h-.872c14.458 0 27.053-11.722 27.053-26.182z"
			  fill="#ffda44"></path>
		<path d="M328.504 232.423c0 40.042-32.461 72.504-72.504 72.504s-72.504-32.461-72.504-72.504" fill="#338af3"></path>
		<path fill="#ffda44" d="M327.871 225.638l-29.367 11.89 15.638 24.48-31.889-5.251-4.041 27.727L256 264.092l-22.213 20.392-4.04-27.727-31.889 5.25 15.637-24.48-29.366-11.889 29.367-11.889-15.638-24.479 31.889 5.25 4.041-27.727L256 187.185l22.213-20.392 4.04 27.727 31.89-5.25-15.638 24.48z"></path>
	</symbol>
	<symbol id="flag-pl" xmlns="http://www.w3.org/2000/svg" viewBox="0 0 512 512">
		<path fill="#f0f0f0" d="M 0 0 H 512 V 256 H 0 z"></path>
		<path fill="#d80027" d="M 0 256 H 512 V 512 H 0 z"></path>
	</symbol>
	<symbol id="flag-pt" xmlns="http://www.w3.org/2000/svg" viewBox="0 0 512 512">
		<path fill="#d80027" d="M0 0h512v512H0z"></path>
		<path fill="#6da544" d="M196.641 0v512H0V0z"></path>
		<circle cx="196.641" cy="256" r="96" fill="#ffda44"></circle>
		<path d="M142.638 208v60c0 29.823 24.178 54 54 54s54-24.178 54-54v-60h-108z" fill="#d80027"></path>
		<path d="M196.638 286c-9.925 0-18-8.075-18-18v-24.001h36V268c0 9.925-8.075 18-18 18z" fill="#f0f0f0"></path>
	</symbol>
	<symbol id="flag-tr" xmlns="http://www.w3.org/2000/svg" viewBox="0 0 512 512">
		<path fill="#d80027" d="M0 0h512v512H0z"></path>
		<g fill="#f0f0f0">
			<path d="M255.767 203.717l23.459 32.326 37.991-12.319-23.495 32.299 23.456 32.326-37.979-12.364-23.495 32.298.024-39.939-37.979-12.366 37.993-12.319z"></path>
			<path d="M191.744 336.802c-44.626 0-80.803-36.176-80.803-80.803s36.176-80.803 80.803-80.803c13.914 0 27.006 3.518 38.437 9.711-17.931-17.535-42.454-28.358-69.514-28.358-54.924 0-99.449 44.525-99.449 99.449s44.525 99.449 99.449 99.449c27.06 0 51.583-10.823 69.514-28.358-11.431 6.194-24.523 9.713-38.437 9.713z"></path>
		</g>
	</symbol>
	<symbol id="flag-ua" xmlns="http://www.w3.org/2000/svg" viewBox="0 0 512 512">
		<path fill="#338af3" d="M 0 0 H 512 V 256 H 0 z"></path>
		<path fill="#ffda44" d="M 0 256 H 512 V 512 H 0 z"></path>
	</symbol>
	<symbol id="flag-am" xmlns="http://www.w3.org/2000/svg" viewBox="0 0 512 512">
		<g><path fill="#d80027" d="M 0 0 H 512 V 170.666 H 0 z"></path></g>
		<g><path fill="#0052b4" d="M 0 170.666 H 512 V 341.333 H 0 z"></path></g>
		<g><path fill="#ff9811" d="M 0 341.333 H 512 V 512 H 0 z"></path></g>
	</symbol>
	<symbol id="flag-id" xmlns="http://www.w3.org/2000/svg" viewBox="0 0 512 512">
		<path fill="#a2001d" d="M 0 0 H 512 V 256 H 0 z"></path>
		<path fill="#f0f0f0" d="M 0 256 H 512 V 512 H 0 z"></path>
	</symbol>
	<symbol id="flag-de" xmlns="http://www.w3.org/2000/svg" viewBox="0 0 512 512">
		<path fill="#000000" d="M 0 0 H 512 V 170.666 H 0 z"></path>
		<path fill="#d80027" d="M 0 170.666 H 512 V 341.333 H 0 z"></path>
		<path fill="#ffda44" d="M 0 341.333 H 512 V 512 H 0 z"></path>
	</symbol>
	<symbol id="flag-es" xmlns="http://www.w3.org/2000/svg" viewBox="0 0 512 512">
		<path fill="#d80027" d="M 0 0 H 512 V 170.666 H 0 z"></path>
		<path fill="#ffda44" d="M 0 170.666 H 512 V 341.333 H 0 z"></path>
		<path fill="#d80027" d="M 0 341.333 H 512 V 512 H 0 z"></path>
	</symbol>
	<symbol id="flag-fr" xmlns="http://www.w3.org/2000/svg" viewBox="0 0 512 512">
		<path fill="#f0f0f0" d="M 170.666 0 H 341.333 V 512 H 170.666 z"></path>
		<path fill="#0052b4" d="M 0 0 H 170.666 V 512 H 0 z"></path>
		<path fill="#d80027" d="M 341.333 0 H 512 V 512 H 341.333 z"></path>
	</symbol>
	<symbol id="flag-ru" xmlns="http://www.w3.org/2000/svg" viewBox="0 0 512 512">
		<path fill="#f0f0f0" d="M 0 0 H 512 V 170.666 H 0 z"></path>
		<path fill="#0052b4" d="M 0 170.666 H 512 V 341.333 H 0 z"></path>
		<path fill="#d80027" d="M 0 341.333 H 512 V 512 H 0 z"></path>
	</symbol>
	<symbol id="flag-uz" xmlns="http://www.w3.org/2000/svg" viewBox="0 0 512 512">
		<path fill="#d80027" d="M0 0h512v512H0z"></path>
		<path fill="#338af3" d="M0 .007h512V181.8H0z"></path>
		<path fill="#6da544" d="M0 330.207h512V512H0z"></path>
		<path d="M173.389 115.322c0-19.617 13.787-36.006 32.198-40.027a41.102 41.102 0 0 0-8.781-.954c-22.634.001-40.98 18.347-40.98 40.981s18.346 40.98 40.98 40.98c3.016 0 5.951-.335 8.781-.954-18.411-4.02-32.198-20.408-32.198-40.026zm56.419 18.628l2.775 8.537h8.977l-7.263 5.278 2.775 8.537-7.264-5.275-7.263 5.275 2.775-8.537-7.264-5.278h8.978zm28.654 0l2.774 8.537h8.978l-7.263 5.278 2.774 8.537-7.263-5.275-7.264 5.275 2.775-8.537-7.262-5.278h8.976zm28.653 0l2.775 8.537h8.977l-7.263 5.278 2.775 8.537-7.264-5.275-7.262 5.275 2.773-8.537-7.262-5.278h8.977zm28.653 0l2.775 8.537h8.978l-7.264 5.278 2.775 8.537-7.264-5.275-7.262 5.275 2.774-8.537-7.263-5.278h8.977zm28.654 0l2.774 8.537h8.978l-7.263 5.278 2.774 8.537-7.263-5.275-7.263 5.275 2.774-8.537-7.262-5.278h8.977zm-85.96-29.804l2.774 8.537h8.978l-7.263 5.277 2.774 8.538-7.263-5.276-7.264 5.276 2.775-8.538-7.262-5.277h8.976zm28.653 0l2.775 8.537h8.977l-7.263 5.277 2.775 8.538-7.264-5.276-7.262 5.276 2.773-8.538-7.262-5.277h8.977zm28.653 0l2.775 8.537h8.978l-7.264 5.277 2.775 8.538-7.264-5.276-7.262 5.276 2.774-8.538-7.263-5.277h8.977zm28.654 0l2.774 8.537h8.978l-7.263 5.277 2.774 8.538-7.263-5.276-7.263 5.276 2.774-8.538-7.262-5.277h8.977zm-57.307-29.804l2.775 8.539h8.977l-7.263 5.275 2.775 8.54-7.264-5.278-7.262 5.278 2.773-8.54-7.262-5.275h8.977zm28.653 0l2.775 8.539h8.978l-7.264 5.275 2.775 8.54-7.264-5.278-7.262 5.278 2.774-8.54-7.263-5.275h8.977zm28.654 0l2.774 8.539h8.978l-7.263 5.275 2.774 8.54-7.263-5.278-7.263 5.278 2.774-8.54-7.262-5.275h8.977zM0 200.348h512v111.304H0z"
			  fill="#f0f0f0"></path>
	</symbol>
	<symbol id="flag-en" xmlns="http://www.w3.org/2000/svg" viewBox="0 0 512 512">
		<circle style="fill:#F0F0F0;" cx="256" cy="256" r="256"/>
		<g>
			<path style="fill:#0052B4;" d="M52.92,100.142c-20.109,26.163-35.272,56.318-44.101,89.077h133.178L52.92,100.142z"/>
			<path style="fill:#0052B4;" d="M503.181,189.219c-8.829-32.758-23.993-62.913-44.101-89.076l-89.075,89.076H503.181z"/>
			<path style="fill:#0052B4;" d="M8.819,322.784c8.83,32.758,23.993,62.913,44.101,89.075l89.074-89.075L8.819,322.784L8.819,322.784
		z"/>
			<path style="fill:#0052B4;" d="M411.858,52.921c-26.163-20.109-56.317-35.272-89.076-44.102v133.177L411.858,52.921z"/>
			<path style="fill:#0052B4;" d="M100.142,459.079c26.163,20.109,56.318,35.272,89.076,44.102V370.005L100.142,459.079z"/>
			<path style="fill:#0052B4;" d="M189.217,8.819c-32.758,8.83-62.913,23.993-89.075,44.101l89.075,89.075V8.819z"/>
			<path style="fill:#0052B4;" d="M322.783,503.181c32.758-8.83,62.913-23.993,89.075-44.101l-89.075-89.075V503.181z"/>
			<path style="fill:#0052B4;" d="M370.005,322.784l89.075,89.076c20.108-26.162,35.272-56.318,44.101-89.076H370.005z"/>
		</g>
		<g>
			<path style="fill:#D80027;" d="M509.833,222.609h-220.44h-0.001V2.167C278.461,0.744,267.317,0,256,0
		c-11.319,0-22.461,0.744-33.391,2.167v220.44v0.001H2.167C0.744,233.539,0,244.683,0,256c0,11.319,0.744,22.461,2.167,33.391
		h220.44h0.001v220.442C233.539,511.256,244.681,512,256,512c11.317,0,22.461-0.743,33.391-2.167v-220.44v-0.001h220.442
		C511.256,278.461,512,267.319,512,256C512,244.683,511.256,233.539,509.833,222.609z"/>
			<path style="fill:#D80027;" d="M322.783,322.784L322.783,322.784L437.019,437.02c5.254-5.252,10.266-10.743,15.048-16.435
		l-97.802-97.802h-31.482V322.784z"/>
			<path style="fill:#D80027;" d="M189.217,322.784h-0.002L74.98,437.019c5.252,5.254,10.743,10.266,16.435,15.048l97.802-97.804
		V322.784z"/>
			<path style="fill:#D80027;" d="M189.217,189.219v-0.002L74.981,74.98c-5.254,5.252-10.266,10.743-15.048,16.435l97.803,97.803
		H189.217z"/>
			<path style="fill:#D80027;" d="M322.783,189.219L322.783,189.219L437.02,74.981c-5.252-5.254-10.743-10.266-16.435-15.047
		l-97.802,97.803V189.219z"/>
		</g>
	</symbol>
	<symbol id="telegram" xmlns="http://www.w3.org/2000/svg" viewBox="0 0 20 17">
		<path fill="#6221A1" d="M19.943 1.527L16.925 15.76c-.228 1.005-.822 1.255-1.665.782l-4.6-3.389-2.218 2.134c-.246.246-.45.451-.924.451l.33-4.683 8.523-7.702c.37-.33-.08-.513-.576-.183L5.26 9.804.723 8.384c-.987-.307-1.005-.986.205-1.46L18.67.09c.821-.308 1.54.183 1.272 1.438z"/>
	</symbol>
	<symbol id="mail" xmlns="http://www.w3.org/2000/svg" viewBox="0 0 20 20">
		<path fill="#6221A1" d="M10 0C4.473 0 0 4.473 0 10s4.473 10 10 10c1.942 0 3.844-.57 5.46-1.622.484-.315.59-.98.224-1.426l-.41-.502c-.31-.377-.854-.47-1.266-.206-1.189.762-2.584 1.175-4.008 1.175-4.091 0-7.42-3.328-7.42-7.419 0-4.091 3.329-7.42 7.42-7.42 4.038 0 7.42 2.324 7.42 6.452 0 1.564-.851 3.216-2.346 3.375-.7-.018-.682-.518-.544-1.21l.945-4.884c.116-.597-.342-1.152-.95-1.152h-1.814c-.277 0-.51.208-.541.484v.004c-.593-.722-1.632-.878-2.419-.878-3.007 0-5.557 2.509-5.557 6.107 0 2.633 1.483 4.269 3.87 4.269 1.089 0 2.314-.63 3.024-1.546.384 1.375 1.638 1.375 2.852 1.375 4.391 0 6.06-2.887 6.06-5.944C20 3.534 15.565 0 10 0zm-.874 12.275c-.897 0-1.455-.63-1.455-1.644 0-1.814 1.241-2.932 2.364-2.932.9 0 1.436.614 1.436 1.644 0 1.817-1.366 2.932-2.345 2.932z"/>
	</symbol>
	<symbol id="skype" xmlns="http://www.w3.org/2000/svg" viewBox="0 0 20 20">
		<path fill="#6221A1" d="M18.964 11.958c.13-.625.21-1.29.21-1.956 0-5.068-4.104-9.167-9.167-9.167-.666 0-1.327.076-1.956.21C7.202.388 6.149 0 5 0 2.241 0 0 2.242 0 5.001 0 6.15.388 7.202 1.04 8.046c-.13.626-.21 1.29-.21 1.956 0 5.068 4.104 9.167 9.168 9.167.665 0 1.326-.076 1.956-.21.848.652 1.902 1.04 3.045 1.04C17.759 20 20 17.76 20 15c.004-1.143-.384-2.197-1.036-3.041zm-8.69 4.086c-2.929 0-5.38-1.304-5.38-2.903 0-.714.402-1.366 1.317-1.366 1.393 0 1.523 2.005 3.934 2.005 1.148 0 1.889-.51 1.889-1.175 0-.835-.715-.964-1.876-1.25-2.79-.687-5.26-.982-5.26-3.894 0-2.643 2.617-3.62 4.872-3.62 2.46 0 4.948.977 4.948 2.473 0 .755-.51 1.42-1.353 1.42-1.264 0-1.304-1.496-3.35-1.496-1.147 0-1.875.313-1.875 1.005 0 .884.929.973 3.086 1.473 1.848.415 4.05 1.197 4.05 3.465 0 2.64-2.55 3.863-5.001 3.863z"/>
	</symbol>
	<symbol id="contacts" xmlns="http://www.w3.org/2000/svg" viewBox="0 0 512 512">
		<path d="M497.39 361.8l-112-48a24 24 0 0 0-28 6.9l-49.6 60.6A370.66 370.66 0 0 1 130.6 204.11l60.6-49.6a23.94 23.94 0 0 0 6.9-28l-48-112A24.16 24.16 0 0 0 122.6.61l-104 24A24 24 0 0 0 0 48c0 256.5 207.9 464 464 464a24 24 0 0 0 23.4-18.6l24-104a24.29 24.29 0 0 0-14.01-27.6z"/>
	</symbol>
	<symbol id="comment" xmlns="http://www.w3.org/2000/svg" viewBox="0 0 16 14">
		<path fill="#ffffff" d="M8 0C3.581 0 0 2.91 0 6.5c0 1.55.669 2.969 1.781 4.084C1.391 12.16.084 13.563.07 13.578a.248.248 0 0 0-.047.272c.04.094.128.15.228.15 2.072 0 3.625-.994 4.394-1.606A9.53 9.53 0 0 0 8 13c4.419 0 8-2.91 8-6.5S12.419 0 8 0z"/>
	</symbol>

	<symbol id="ios" xmlns="http://www.w3.org/2000/svg" viewBox="0 0 44 53">
		<g fill-rule="nonzero">
			<path d="M22.156 14.928c1.643 0 6.132-2.741 10.239-2.415 4.338.339 7.624 2.065 9.8 5.202-3.888 2.379-5.809 5.61-5.786 9.89 0 .22-.405 7.136 7.139 10.717-1.412 4.291-6.248 13.831-11.87 13.913-3.252 0-5.16-2.088-8.84-2.088-3.794 0-5.854 2.018-8.77 2.088-5.576.175-10.921-10.321-12.402-14.601C.556 34.38 0 31.219 0 28.164 0 17.82 6.86 12.735 13.317 12.63c3.123 0 7.103 2.298 8.839 2.298zM32.638 0c.092 1.236.382 4.677-2.777 8.455-2.268 2.67-5.021 4.233-8.04 4-.255-3.219.936-6.076 2.961-8.385C26.622 1.913 29.849.163 32.638 0z" transform="translate(-660 -369) translate(464 299) translate(196 70)"/>
		</g>
	</symbol>
	<symbol id="android" xmlns="http://www.w3.org/2000/svg" viewBox="0 0 45 53">
		<g fill-rule="nonzero" transform="translate(-735 -369)">
			<path d="M81.75 20.423v13.705c0 1.823-1.418 3.278-3.223 3.278-1.793 0-3.527-1.467-3.527-3.278V20.423c0-1.787 1.734-3.254 3.527-3.254 1.77 0 3.223 1.467 3.223 3.254zm1.266 18.58c0 1.942 1.546 3.504 3.468 3.504h2.332l.036 7.231c0 4.367 6.468 4.332 6.468 0v-7.231h4.36v7.231c0 4.343 6.504 4.355 6.504 0v-7.231h2.367c1.898 0 3.445-1.562 3.445-3.503V17.772h-28.98v21.232zm29.062-22.379H82.887c0-5.065 3-9.467 7.453-11.763L88.102.683c-.329-.58.503-.947.785-.45l2.273 4.213c4.09-1.834 8.79-1.74 12.692 0l2.261-4.2c.293-.51 1.114-.131.785.449L104.66 4.86c4.418 2.296 7.418 6.698 7.418 11.763zm-20.004-6.568c0-.674-.539-1.243-1.23-1.243-.668 0-1.196.569-1.196 1.243 0 .675.54 1.243 1.196 1.243.691 0 1.23-.568 1.23-1.243zm13.29 0c0-.674-.54-1.243-1.196-1.243-.691 0-1.23.569-1.23 1.243 0 .675.539 1.243 1.23 1.243.656 0 1.195-.568 1.195-1.243zm11.109 7.113c-1.77 0-3.223 1.432-3.223 3.254v13.705c0 1.823 1.453 3.278 3.223 3.278 1.804 0 3.527-1.467 3.527-3.278V20.423c0-1.822-1.734-3.254-3.527-3.254z" transform="translate(464 299) translate(196 70)"/>
		</g>
	</symbol>

	<symbol id="add-home" xmlns="http://www.w3.org/2000/svg" viewBox="0 0 14 14">
		<path fill="#000" opacity=".5" d="M10.188.136c1.035.01 1.551.12 2.087.406.509.272.91.674 1.183 1.183.302.565.407 1.11.407 2.265v6.02c0 1.155-.105 1.7-.407 2.265-.272.509-.674.91-1.183 1.183-.565.302-1.11.407-2.265.407H3.99c-1.155 0-1.7-.105-2.265-.407-.509-.272-.91-.674-1.183-1.183-.302-.565-.407-1.11-.407-2.265V3.812c.011-1.035.12-1.551.407-2.087.272-.509.674-.91 1.183-1.183C2.29.24 2.835.135 3.99.135zm-.178.806H3.99c-1.033 0-1.452.081-1.884.312-.368.197-.655.484-.852.852-.23.432-.312.85-.312 1.884v6.02c0 1.033.081 1.452.312 1.884.197.368.484.655.852.852.387.207.762.293 1.577.309l.307.003h6.02c1.033 0 1.452-.081 1.884-.312.368-.197.655-.484.852-.852.207-.387.293-.762.309-1.577l.003-.307V3.99c0-1.033-.081-1.452-.312-1.884-.197-.368-.484-.655-.852-.852-.432-.23-.85-.312-1.884-.312zM7 3.5c.286 0 .525.206.574.478l.01.105v2.334h2.333c.322 0 .583.26.583.583 0 .286-.206.525-.478.574l-.105.01H7.583v2.333c0 .322-.26.583-.583.583-.286 0-.525-.206-.574-.478l-.01-.105V7.583H4.084c-.322 0-.583-.26-.583-.583 0-.286.206-.525.478-.574l.105-.01h2.334V4.084c0-.322.26-.583.583-.583z" transform="translate(-251 -464) translate(40 458) translate(211 6)"/>
	</symbol>
	<symbol id="app-pwa" xmlns="http://www.w3.org/2000/svg" viewBox="0 0 12 14">
		<path fill="#000" opacity=".5" d="M3.75 3.792l.061.004c.22.029.389.212.389.433 0 .242-.201.438-.45.438H2.621c-.563.007-.797.057-1.038.182-.215.111-.38.273-.496.482-.119.216-.171.426-.184.888L.9 6.473v4.978c.007.548.058.776.187 1.01.115.209.281.37.496.482.26.135.51.182 1.174.182h6.486c.663 0 .915-.047 1.174-.182.215-.112.38-.273.496-.482.129-.234.18-.462.186-1.01l.001-4.978-.003-.254c-.013-.462-.065-.672-.184-.888-.115-.21-.281-.37-.496-.482-.24-.125-.475-.175-1.038-.182H8.25c-.249 0-.45-.196-.45-.438 0-.221.17-.404.389-.433l.061-.004h.993c.799 0 1.19.073 1.598.285.372.193.667.48.865.841.204.37.283.726.293 1.404l.001.15v4.847c0 .777-.076 1.158-.294 1.555-.198.361-.493.647-.865.84-.38.198-.747.276-1.444.285L6.151 14h-.303l-3.245-.001c-.62-.008-.978-.07-1.318-.223l-.126-.061c-.372-.194-.667-.48-.865-.841C.076 12.477 0 12.096 0 11.319V6.473l.001-.15c.01-.679.09-1.035.293-1.405.198-.361.493-.648.865-.84.407-.213.799-.286 1.598-.286h.993zM6 0c.304 0 .555.165.595.378l.004.058L8.52 1.837c.199.145.24.42.09.613-.136.176-.381.224-.574.122l-.056-.034L6.599 1.53 6.6 8.604c0 .242-.269.438-.6.438-.304 0-.555-.165-.595-.378l-.005-.06V1.312L3.72 2.538c-.18.131-.43.11-.586-.04L3.09 2.45c-.136-.176-.115-.418.04-.57l.05-.042 2.4-1.75c.098-.072.22-.1.335-.083L6 0z" transform="translate(-226 -371) translate(40 366) translate(186 5)"/>
	</symbol>


<symbol id="profile-security"  xmlns="http://www.w3.org/2000/svg" viewBox="0 0 512 512">
<path d="M256 0c4.6 0 9.2 1 13.4 2.9L457.7 82.8c22 9.3 38.4 31 38.3 57.2c-.5 99.2-41.3 280.7-213.6 363.2c-16.7 8-36.1 8-52.8 0C57.3 420.7 16.5 239.2 16 140c-.1-26.2 16.3-47.9 38.3-57.2L242.7 2.9C246.8 1 251.4 0 256 0zm0 66.8V444.8C394 378 431.1 230.1 432 141.4L256 66.8l0 0z"/>
</symbol>

<symbol id="profile-general" xmlns="http://www.w3.org/2000/svg" viewBox="0 0 640 512">
<path d="M308.5 135.3c7.1-6.3 9.9-16.2 6.2-25c-2.3-5.3-4.8-10.5-7.6-15.5L304 89.4c-3-5-6.3-9.9-9.8-14.6c-5.7-7.6-15.7-10.1-24.7-7.1l-28.2 9.3c-10.7-8.8-23-16-36.2-20.9L199 27.1c-1.9-9.3-9.1-16.7-18.5-17.8C173.9 8.4 167.2 8 160.4 8h-.7c-6.8 0-13.5 .4-20.1 1.2c-9.4 1.1-16.6 8.6-18.5 17.8L115 56.1c-13.3 5-25.5 12.1-36.2 20.9L50.5 67.8c-9-3-19-.5-24.7 7.1c-3.5 4.7-6.8 9.6-9.9 14.6l-3 5.3c-2.8 5-5.3 10.2-7.6 15.6c-3.7 8.7-.9 18.6 6.2 25l22.2 19.8C32.6 161.9 32 168.9 32 176s.6 14.1 1.7 20.9L11.5 216.7c-7.1 6.3-9.9 16.2-6.2 25c2.3 5.3 4.8 10.5 7.6 15.6l3 5.2c3 5.1 6.3 9.9 9.9 14.6c5.7 7.6 15.7 10.1 24.7 7.1l28.2-9.3c10.7 8.8 23 16 36.2 20.9l6.1 29.1c1.9 9.3 9.1 16.7 18.5 17.8c6.7 .8 13.5 1.2 20.4 1.2s13.7-.4 20.4-1.2c9.4-1.1 16.6-8.6 18.5-17.8l6.1-29.1c13.3-5 25.5-12.1 36.2-20.9l28.2 9.3c9 3 19 .5 24.7-7.1c3.5-4.7 6.8-9.5 9.8-14.6l3.1-5.4c2.8-5 5.3-10.2 7.6-15.5c3.7-8.7 .9-18.6-6.2-25l-22.2-19.8c1.1-6.8 1.7-13.8 1.7-20.9s-.6-14.1-1.7-20.9l22.2-19.8zM112 176a48 48 0 1 1 96 0 48 48 0 1 1 -96 0zM504.7 500.5c6.3 7.1 16.2 9.9 25 6.2c5.3-2.3 10.5-4.8 15.5-7.6l5.4-3.1c5-3 9.9-6.3 14.6-9.8c7.6-5.7 10.1-15.7 7.1-24.7l-9.3-28.2c8.8-10.7 16-23 20.9-36.2l29.1-6.1c9.3-1.9 16.7-9.1 17.8-18.5c.8-6.7 1.2-13.5 1.2-20.4s-.4-13.7-1.2-20.4c-1.1-9.4-8.6-16.6-17.8-18.5L583.9 307c-5-13.3-12.1-25.5-20.9-36.2l9.3-28.2c3-9 .5-19-7.1-24.7c-4.7-3.5-9.6-6.8-14.6-9.9l-5.3-3c-5-2.8-10.2-5.3-15.6-7.6c-8.7-3.7-18.6-.9-25 6.2l-19.8 22.2c-6.8-1.1-13.8-1.7-20.9-1.7s-14.1 .6-20.9 1.7l-19.8-22.2c-6.3-7.1-16.2-9.9-25-6.2c-5.3 2.3-10.5 4.8-15.6 7.6l-5.2 3c-5.1 3-9.9 6.3-14.6 9.9c-7.6 5.7-10.1 15.7-7.1 24.7l9.3 28.2c-8.8 10.7-16 23-20.9 36.2L315.1 313c-9.3 1.9-16.7 9.1-17.8 18.5c-.8 6.7-1.2 13.5-1.2 20.4s.4 13.7 1.2 20.4c1.1 9.4 8.6 16.6 17.8 18.5l29.1 6.1c5 13.3 12.1 25.5 20.9 36.2l-9.3 28.2c-3 9-.5 19 7.1 24.7c4.7 3.5 9.5 6.8 14.6 9.8l5.4 3.1c5 2.8 10.2 5.3 15.5 7.6c8.7 3.7 18.6 .9 25-6.2l19.8-22.2c6.8 1.1 13.8 1.7 20.9 1.7s14.1-.6 20.9-1.7l19.8 22.2zM464 304a48 48 0 1 1 0 96 48 48 0 1 1 0-96z"/>
</symbol>

</svg>
